<mxfile host="Electron" modified="2023-12-28T16:49:59.597Z" agent="Mozilla/5.0 (X11; Linux x86_64) AppleWebKit/537.36 (KHTML, like Gecko) draw.io/22.0.2 Chrome/114.0.5735.289 Electron/25.8.4 Safari/537.36" etag="7HhlUouyPYIt6TzXZYxp" version="22.0.2" type="device">
  <diagram name="Page-1" id="yoi2QbFBB0RwzHlaKdld">
    <mxGraphModel dx="1364" dy="843" grid="1" gridSize="10" guides="1" tooltips="1" connect="1" arrows="1" fold="1" page="1" pageScale="1" pageWidth="850" pageHeight="1100" math="0" shadow="0">
      <root>
        <mxCell id="0" />
        <mxCell id="1" parent="0" />
        <mxCell id="3SrSpCNq1iklLmBD-pDj-5" value="&amp;lt;&amp;lt;controller&amp;gt;&amp;gt;&lt;br&gt;joinCommunity" style="swimlane;fontStyle=1;align=center;verticalAlign=top;childLayout=stackLayout;horizontal=1;startSize=40;horizontalStack=0;resizeParent=1;resizeParentMax=0;resizeLast=0;collapsible=1;marginBottom=0;whiteSpace=wrap;html=1;" parent="1" vertex="1">
          <mxGeometry x="300" y="430" width="210" height="74" as="geometry" />
        </mxCell>
        <mxCell id="3SrSpCNq1iklLmBD-pDj-6" value="" style="line;strokeWidth=1;fillColor=none;align=left;verticalAlign=middle;spacingTop=-1;spacingLeft=3;spacingRight=3;rotatable=0;labelPosition=right;points=[];portConstraint=eastwest;strokeColor=inherit;" parent="3SrSpCNq1iklLmBD-pDj-5" vertex="1">
          <mxGeometry y="40" width="210" height="8" as="geometry" />
        </mxCell>
        <mxCell id="3SrSpCNq1iklLmBD-pDj-7" value="+ join(professorName : String)" style="text;strokeColor=none;fillColor=none;align=left;verticalAlign=top;spacingLeft=4;spacingRight=4;overflow=hidden;rotatable=0;points=[[0,0.5],[1,0.5]];portConstraint=eastwest;whiteSpace=wrap;html=1;" parent="3SrSpCNq1iklLmBD-pDj-5" vertex="1">
          <mxGeometry y="48" width="210" height="26" as="geometry" />
        </mxCell>
        <mxCell id="3SrSpCNq1iklLmBD-pDj-8" value="&amp;lt;&amp;lt;controller&amp;gt;&amp;gt;&lt;br&gt;professorPageGUI" style="swimlane;fontStyle=1;align=center;verticalAlign=top;childLayout=stackLayout;horizontal=1;startSize=40;horizontalStack=0;resizeParent=1;resizeParentMax=0;resizeLast=0;collapsible=1;marginBottom=0;whiteSpace=wrap;html=1;" parent="1" vertex="1">
          <mxGeometry x="90" y="440" width="160" height="100" as="geometry" />
        </mxCell>
        <mxCell id="3SrSpCNq1iklLmBD-pDj-10" value="" style="line;strokeWidth=1;fillColor=none;align=left;verticalAlign=middle;spacingTop=-1;spacingLeft=3;spacingRight=3;rotatable=0;labelPosition=right;points=[];portConstraint=eastwest;strokeColor=inherit;" parent="3SrSpCNq1iklLmBD-pDj-8" vertex="1">
          <mxGeometry y="40" width="160" height="8" as="geometry" />
        </mxCell>
        <mxCell id="3SrSpCNq1iklLmBD-pDj-11" value="+ joinReddit()" style="text;strokeColor=none;fillColor=none;align=left;verticalAlign=top;spacingLeft=4;spacingRight=4;overflow=hidden;rotatable=0;points=[[0,0.5],[1,0.5]];portConstraint=eastwest;whiteSpace=wrap;html=1;" parent="3SrSpCNq1iklLmBD-pDj-8" vertex="1">
          <mxGeometry y="48" width="160" height="26" as="geometry" />
        </mxCell>
        <mxCell id="3SrSpCNq1iklLmBD-pDj-52" value="+ seeProfCV()" style="text;strokeColor=none;fillColor=none;align=left;verticalAlign=top;spacingLeft=4;spacingRight=4;overflow=hidden;rotatable=0;points=[[0,0.5],[1,0.5]];portConstraint=eastwest;whiteSpace=wrap;html=1;" parent="3SrSpCNq1iklLmBD-pDj-8" vertex="1">
          <mxGeometry y="74" width="160" height="26" as="geometry" />
        </mxCell>
        <mxCell id="3SrSpCNq1iklLmBD-pDj-16" value="&amp;lt;&amp;lt;view&amp;gt;&amp;gt;&lt;br&gt;professorMainPage" style="swimlane;fontStyle=1;align=center;verticalAlign=top;childLayout=stackLayout;horizontal=1;startSize=40;horizontalStack=0;resizeParent=1;resizeParentMax=0;resizeLast=0;collapsible=1;marginBottom=0;whiteSpace=wrap;html=1;" parent="1" vertex="1">
          <mxGeometry x="30" y="632" width="160" height="48" as="geometry" />
        </mxCell>
        <mxCell id="3SrSpCNq1iklLmBD-pDj-18" value="" style="line;strokeWidth=1;fillColor=none;align=left;verticalAlign=middle;spacingTop=-1;spacingLeft=3;spacingRight=3;rotatable=0;labelPosition=right;points=[];portConstraint=eastwest;strokeColor=inherit;" parent="3SrSpCNq1iklLmBD-pDj-16" vertex="1">
          <mxGeometry y="40" width="160" height="8" as="geometry" />
        </mxCell>
        <mxCell id="3SrSpCNq1iklLmBD-pDj-31" value="&amp;lt;&amp;lt;entity&amp;gt;&amp;gt;&lt;br&gt;User" style="swimlane;fontStyle=1;align=center;verticalAlign=top;childLayout=stackLayout;horizontal=1;startSize=42;horizontalStack=0;resizeParent=1;resizeParentMax=0;resizeLast=0;collapsible=1;marginBottom=0;whiteSpace=wrap;html=1;" parent="1" vertex="1">
          <mxGeometry x="540" y="530" width="160" height="102" as="geometry" />
        </mxCell>
        <mxCell id="3SrSpCNq1iklLmBD-pDj-32" value="+ password : String" style="text;strokeColor=none;fillColor=none;align=left;verticalAlign=top;spacingLeft=4;spacingRight=4;overflow=hidden;rotatable=0;points=[[0,0.5],[1,0.5]];portConstraint=eastwest;whiteSpace=wrap;html=1;" parent="3SrSpCNq1iklLmBD-pDj-31" vertex="1">
          <mxGeometry y="42" width="160" height="26" as="geometry" />
        </mxCell>
        <mxCell id="3SrSpCNq1iklLmBD-pDj-33" value="+ email : String" style="text;strokeColor=none;fillColor=none;align=left;verticalAlign=top;spacingLeft=4;spacingRight=4;overflow=hidden;rotatable=0;points=[[0,0.5],[1,0.5]];portConstraint=eastwest;whiteSpace=wrap;html=1;" parent="3SrSpCNq1iklLmBD-pDj-31" vertex="1">
          <mxGeometry y="68" width="160" height="26" as="geometry" />
        </mxCell>
        <mxCell id="3SrSpCNq1iklLmBD-pDj-34" value="" style="line;strokeWidth=1;fillColor=none;align=left;verticalAlign=middle;spacingTop=-1;spacingLeft=3;spacingRight=3;rotatable=0;labelPosition=right;points=[];portConstraint=eastwest;strokeColor=inherit;" parent="3SrSpCNq1iklLmBD-pDj-31" vertex="1">
          <mxGeometry y="94" width="160" height="8" as="geometry" />
        </mxCell>
        <mxCell id="3SrSpCNq1iklLmBD-pDj-38" value="&amp;lt;&amp;lt;entity&amp;gt;&amp;gt;&lt;br&gt;professor" style="swimlane;fontStyle=1;align=center;verticalAlign=top;childLayout=stackLayout;horizontal=1;startSize=40;horizontalStack=0;resizeParent=1;resizeParentMax=0;resizeLast=0;collapsible=1;marginBottom=0;whiteSpace=wrap;html=1;" parent="1" vertex="1">
          <mxGeometry x="530" y="680" width="200" height="74" as="geometry" />
        </mxCell>
        <mxCell id="3SrSpCNq1iklLmBD-pDj-39" value="+ coursesPublished : List&amp;lt;course&amp;gt;" style="text;strokeColor=none;fillColor=none;align=left;verticalAlign=top;spacingLeft=4;spacingRight=4;overflow=hidden;rotatable=0;points=[[0,0.5],[1,0.5]];portConstraint=eastwest;whiteSpace=wrap;html=1;" parent="3SrSpCNq1iklLmBD-pDj-38" vertex="1">
          <mxGeometry y="40" width="200" height="26" as="geometry" />
        </mxCell>
        <mxCell id="3SrSpCNq1iklLmBD-pDj-40" value="" style="line;strokeWidth=1;fillColor=none;align=left;verticalAlign=middle;spacingTop=-1;spacingLeft=3;spacingRight=3;rotatable=0;labelPosition=right;points=[];portConstraint=eastwest;strokeColor=inherit;" parent="3SrSpCNq1iklLmBD-pDj-38" vertex="1">
          <mxGeometry y="66" width="200" height="8" as="geometry" />
        </mxCell>
        <mxCell id="3SrSpCNq1iklLmBD-pDj-42" value="" style="endArrow=block;endSize=16;endFill=0;html=1;rounded=0;" parent="1" source="3SrSpCNq1iklLmBD-pDj-38" target="3SrSpCNq1iklLmBD-pDj-31" edge="1">
          <mxGeometry width="160" relative="1" as="geometry">
            <mxPoint x="505" y="680" as="sourcePoint" />
            <mxPoint x="559" y="612" as="targetPoint" />
          </mxGeometry>
        </mxCell>
        <mxCell id="3SrSpCNq1iklLmBD-pDj-43" value="" style="endArrow=open;endFill=1;endSize=12;html=1;rounded=0;" parent="1" source="3SrSpCNq1iklLmBD-pDj-5" target="3SrSpCNq1iklLmBD-pDj-31" edge="1">
          <mxGeometry width="160" relative="1" as="geometry">
            <mxPoint x="610" y="460" as="sourcePoint" />
            <mxPoint x="770" y="460" as="targetPoint" />
          </mxGeometry>
        </mxCell>
        <mxCell id="3SrSpCNq1iklLmBD-pDj-44" value="&amp;lt;&amp;lt;Bean&amp;gt;&amp;gt;&lt;br&gt;BeanProfessor" style="swimlane;fontStyle=1;align=center;verticalAlign=top;childLayout=stackLayout;horizontal=1;startSize=34;horizontalStack=0;resizeParent=1;resizeParentMax=0;resizeLast=0;collapsible=1;marginBottom=0;whiteSpace=wrap;html=1;" parent="1" vertex="1">
          <mxGeometry x="250" y="580" width="220" height="146" as="geometry" />
        </mxCell>
        <mxCell id="3SrSpCNq1iklLmBD-pDj-53" value="+ professorBio : String" style="text;strokeColor=none;fillColor=none;align=left;verticalAlign=top;spacingLeft=4;spacingRight=4;overflow=hidden;rotatable=0;points=[[0,0.5],[1,0.5]];portConstraint=eastwest;whiteSpace=wrap;html=1;" parent="3SrSpCNq1iklLmBD-pDj-44" vertex="1">
          <mxGeometry y="34" width="220" height="26" as="geometry" />
        </mxCell>
        <mxCell id="3SrSpCNq1iklLmBD-pDj-55" value="+ professorCourses : List&amp;lt;course&amp;gt;" style="text;strokeColor=none;fillColor=none;align=left;verticalAlign=top;spacingLeft=4;spacingRight=4;overflow=hidden;rotatable=0;points=[[0,0.5],[1,0.5]];portConstraint=eastwest;whiteSpace=wrap;html=1;" parent="3SrSpCNq1iklLmBD-pDj-44" vertex="1">
          <mxGeometry y="60" width="220" height="26" as="geometry" />
        </mxCell>
        <mxCell id="3SrSpCNq1iklLmBD-pDj-54" value="+ professorCV : file" style="text;strokeColor=none;fillColor=none;align=left;verticalAlign=top;spacingLeft=4;spacingRight=4;overflow=hidden;rotatable=0;points=[[0,0.5],[1,0.5]];portConstraint=eastwest;whiteSpace=wrap;html=1;" parent="3SrSpCNq1iklLmBD-pDj-44" vertex="1">
          <mxGeometry y="86" width="220" height="26" as="geometry" />
        </mxCell>
        <mxCell id="3SrSpCNq1iklLmBD-pDj-45" value="+ professorName : String" style="text;strokeColor=none;fillColor=none;align=left;verticalAlign=top;spacingLeft=4;spacingRight=4;overflow=hidden;rotatable=0;points=[[0,0.5],[1,0.5]];portConstraint=eastwest;whiteSpace=wrap;html=1;" parent="3SrSpCNq1iklLmBD-pDj-44" vertex="1">
          <mxGeometry y="112" width="220" height="26" as="geometry" />
        </mxCell>
        <mxCell id="3SrSpCNq1iklLmBD-pDj-46" value="" style="line;strokeWidth=1;fillColor=none;align=left;verticalAlign=middle;spacingTop=-1;spacingLeft=3;spacingRight=3;rotatable=0;labelPosition=right;points=[];portConstraint=eastwest;strokeColor=inherit;" parent="3SrSpCNq1iklLmBD-pDj-44" vertex="1">
          <mxGeometry y="138" width="220" height="8" as="geometry" />
        </mxCell>
        <mxCell id="3SrSpCNq1iklLmBD-pDj-48" value="" style="endArrow=open;endFill=1;endSize=12;html=1;rounded=0;" parent="1" source="3SrSpCNq1iklLmBD-pDj-5" target="3SrSpCNq1iklLmBD-pDj-8" edge="1">
          <mxGeometry width="160" relative="1" as="geometry">
            <mxPoint x="290" y="570" as="sourcePoint" />
            <mxPoint x="450" y="570" as="targetPoint" />
          </mxGeometry>
        </mxCell>
        <mxCell id="3SrSpCNq1iklLmBD-pDj-49" value="" style="endArrow=open;endFill=1;endSize=12;html=1;rounded=0;" parent="1" source="3SrSpCNq1iklLmBD-pDj-8" target="3SrSpCNq1iklLmBD-pDj-16" edge="1">
          <mxGeometry width="160" relative="1" as="geometry">
            <mxPoint x="350" y="467" as="sourcePoint" />
            <mxPoint x="260" y="485" as="targetPoint" />
          </mxGeometry>
        </mxCell>
        <mxCell id="3SrSpCNq1iklLmBD-pDj-50" value="" style="endArrow=open;endFill=1;endSize=12;html=1;rounded=0;" parent="1" source="3SrSpCNq1iklLmBD-pDj-5" target="3SrSpCNq1iklLmBD-pDj-44" edge="1">
          <mxGeometry width="160" relative="1" as="geometry">
            <mxPoint x="152" y="550" as="sourcePoint" />
            <mxPoint x="113" y="620" as="targetPoint" />
          </mxGeometry>
        </mxCell>
        <mxCell id="3SrSpCNq1iklLmBD-pDj-51" value="" style="endArrow=open;endFill=1;endSize=12;html=1;rounded=0;" parent="1" source="3SrSpCNq1iklLmBD-pDj-44" target="3SrSpCNq1iklLmBD-pDj-8" edge="1">
          <mxGeometry width="160" relative="1" as="geometry">
            <mxPoint x="443" y="484" as="sourcePoint" />
            <mxPoint x="386" y="656" as="targetPoint" />
          </mxGeometry>
        </mxCell>
        <mxCell id="UiTa-u-A0Uu_1GZt_biM-1" value="&amp;lt;&amp;lt;view&amp;gt;&amp;gt;&lt;br&gt;coursesByHim" style="swimlane;fontStyle=1;align=center;verticalAlign=top;childLayout=stackLayout;horizontal=1;startSize=40;horizontalStack=0;resizeParent=1;resizeParentMax=0;resizeLast=0;collapsible=1;marginBottom=0;whiteSpace=wrap;html=1;" vertex="1" parent="1">
          <mxGeometry x="50" y="320" width="160" height="48" as="geometry" />
        </mxCell>
        <mxCell id="UiTa-u-A0Uu_1GZt_biM-3" value="" style="line;strokeWidth=1;fillColor=none;align=left;verticalAlign=middle;spacingTop=-1;spacingLeft=3;spacingRight=3;rotatable=0;labelPosition=right;points=[];portConstraint=eastwest;strokeColor=inherit;" vertex="1" parent="UiTa-u-A0Uu_1GZt_biM-1">
          <mxGeometry y="40" width="160" height="8" as="geometry" />
        </mxCell>
        <mxCell id="UiTa-u-A0Uu_1GZt_biM-5" value="" style="endArrow=open;endFill=1;endSize=12;html=1;rounded=0;" edge="1" parent="1" source="3SrSpCNq1iklLmBD-pDj-8" target="UiTa-u-A0Uu_1GZt_biM-1">
          <mxGeometry width="160" relative="1" as="geometry">
            <mxPoint x="150" y="410" as="sourcePoint" />
            <mxPoint x="310" y="410" as="targetPoint" />
          </mxGeometry>
        </mxCell>
      </root>
    </mxGraphModel>
  </diagram>
</mxfile>
